<svg width="199" height="32" viewBox="0 0 199 32" fill="none" xmlns="http://www.w3.org/2000/svg">
<g clip-path="url(#clip0_307_25)">
<path d="M18.7534 0.998976V24.8434H11.5797V0.998976H18.7534ZM28.5318 0.998976L29.4589 6.79632L2 5.14227L0.5 0L28.5318 0.998976Z" fill="#2CAEBA"/>
<path d="M26.501 16.1638V15.8199C26.501 14.5206 26.7511 13.3251 27.2515 12.2334C27.7518 11.1307 28.4876 10.1754 29.4588 9.36746C30.43 8.55955 31.6219 7.93177 33.0346 7.48415C34.4473 7.0256 36.066 6.79633 37.8907 6.79633C39.7448 6.79633 41.3782 7.0256 42.7909 7.48415C44.2183 7.93177 45.4176 8.55955 46.3888 9.36746C47.36 10.1754 48.0958 11.1307 48.5961 12.2334C49.0964 13.3251 49.3466 14.5206 49.3466 15.8199V16.1638C49.3466 17.4521 49.0964 18.6476 48.5961 19.7503C48.0958 20.842 47.36 21.7973 46.3888 22.6162C45.4176 23.4241 44.2256 24.0519 42.813 24.4995C41.4003 24.9471 39.7742 25.1709 37.9348 25.1709C36.1101 25.1709 34.4841 24.9471 33.0567 24.4995C31.6293 24.0519 30.43 23.4241 29.4588 22.6162C28.4876 21.7973 27.7518 20.842 27.2515 19.7503C26.7511 18.6476 26.501 17.4521 26.501 16.1638ZM33.4098 15.8199V16.1638C33.4098 16.8625 33.4834 17.5176 33.6306 18.129C33.7924 18.7404 34.05 19.2753 34.4031 19.7339C34.7563 20.1924 35.2198 20.5527 35.7937 20.8147C36.3823 21.0658 37.096 21.1914 37.9348 21.1914C38.7736 21.1914 39.4799 21.0658 40.0538 20.8147C40.6277 20.5527 41.0913 20.1924 41.4444 19.7339C41.7976 19.2753 42.0478 18.7404 42.1949 18.129C42.3568 17.5176 42.4377 16.8625 42.4377 16.1638V15.8199C42.4377 15.132 42.3568 14.4879 42.1949 13.8874C42.0478 13.276 41.7976 12.7356 41.4444 12.2661C41.0913 11.7967 40.6204 11.4309 40.0318 11.1689C39.4579 10.9069 38.7442 10.7758 37.8907 10.7758C37.0666 10.7758 36.3676 10.9069 35.7937 11.1689C35.2198 11.4309 34.7563 11.7967 34.4031 12.2661C34.05 12.7356 33.7924 13.276 33.6306 13.8874C33.4834 14.4879 33.4098 15.132 33.4098 15.8199Z" fill="#2CAEBA"/>
<path d="M66.9828 20.5691V7.12384H73.9138V24.8434H67.4243L66.9828 20.5691ZM67.7113 16.9498L69.6095 16.9171C69.6095 18.1071 69.4182 19.2044 69.0356 20.2088C68.6678 21.2132 68.1086 22.0867 67.3581 22.8291C66.6223 23.5715 65.7026 24.1501 64.599 24.565C63.51 24.969 62.2371 25.1709 60.7803 25.1709C59.6031 25.1709 58.5215 25.0508 57.5356 24.8106C56.5644 24.5595 55.7256 24.172 55.0193 23.6479C54.3129 23.1129 53.7685 22.4306 53.3859 21.6008C53.0033 20.7601 52.812 19.7557 52.812 18.5875V7.12384H59.6987V18.6203C59.6987 19.0788 59.7723 19.4719 59.9195 19.7994C60.0813 20.116 60.2947 20.378 60.5596 20.5855C60.8392 20.7929 61.1776 20.9458 61.575 21.044C61.987 21.1423 62.4358 21.1914 62.9214 21.1914C64.1428 21.1914 65.0993 21.0058 65.7909 20.6346C66.4972 20.2525 66.9902 19.7448 67.2698 19.1116C67.5641 18.4674 67.7113 17.7468 67.7113 16.9498Z" fill="#2CAEBA"/>
<path d="M85.3038 11.2508V24.8434H78.417V7.12386H84.8844L85.3038 11.2508ZM92.4334 6.99285L92.323 11.7584C92.0287 11.7257 91.6461 11.6984 91.1752 11.6766C90.7043 11.6438 90.2996 11.6274 89.9612 11.6274C89.0783 11.6274 88.3131 11.7093 87.6656 11.8731C87.0328 12.0259 86.5031 12.2552 86.0763 12.5609C85.6643 12.8666 85.3553 13.2487 85.1493 13.7073C84.9432 14.1549 84.8402 14.6735 84.8402 15.2631L83.5379 14.7881C83.5379 13.6199 83.6924 12.55 84.0015 11.5783C84.3105 10.6066 84.7593 9.76596 85.3479 9.0563C85.9365 8.33573 86.6576 7.77893 87.5111 7.38589C88.3646 6.99285 89.3358 6.79633 90.4247 6.79633C90.7779 6.79633 91.1384 6.8127 91.5063 6.84546C91.8742 6.87821 92.1832 6.92734 92.4334 6.99285Z" fill="#2CAEBA"/>
<path d="M122.122 0.998984V24.8434H114.948L102.808 9.43297V24.8434H95.6118L94 0.720581L102.808 0.998984L114.97 16.4094V0.998984H122.122Z" fill="black"/>
<path d="M139.736 20.6182V13.0194C139.736 12.4845 139.625 12.0259 139.405 11.6438C139.184 11.2617 138.838 10.9614 138.367 10.7431C137.896 10.5247 137.286 10.4156 136.535 10.4156C135.902 10.4156 135.351 10.4974 134.88 10.6612C134.424 10.825 134.07 11.0597 133.82 11.3654C133.585 11.6711 133.467 12.0478 133.467 12.4954H126.58C126.58 11.6984 126.823 10.956 127.309 10.2682C127.794 9.58036 128.486 8.97442 129.384 8.45037C130.296 7.92632 131.385 7.52236 132.65 7.23849C133.916 6.94371 135.336 6.79633 136.91 6.79633C138.779 6.79633 140.442 7.03106 141.899 7.50052C143.371 7.95907 144.533 8.65235 145.387 9.58036C146.24 10.4974 146.667 11.6547 146.667 13.0522V20.4708C146.667 21.5408 146.748 22.3814 146.91 22.9928C147.086 23.5933 147.336 24.1174 147.66 24.565V24.8434H140.707C140.383 24.3303 140.14 23.697 139.979 22.9437C139.817 22.1795 139.736 21.4043 139.736 20.6182ZM140.597 14.0348L140.641 16.8516H137.219C136.454 16.8516 135.792 16.9226 135.233 17.0645C134.688 17.2064 134.247 17.4029 133.909 17.654C133.57 17.8942 133.32 18.1781 133.158 18.5056C133.011 18.8222 132.937 19.1716 132.937 19.5537C132.937 19.914 133.055 20.2416 133.29 20.5363C133.526 20.8202 133.85 21.044 134.262 21.2078C134.674 21.3715 135.152 21.4534 135.696 21.4534C136.594 21.4534 137.359 21.3224 137.992 21.0604C138.64 20.7984 139.14 20.4817 139.493 20.1105C139.846 19.7284 140.023 19.3736 140.023 19.0461L141.678 21.175C141.413 21.6117 141.09 22.0648 140.707 22.5343C140.324 22.9928 139.839 23.4241 139.25 23.828C138.662 24.2211 137.948 24.5432 137.109 24.7943C136.285 25.0454 135.292 25.1709 134.129 25.1709C132.628 25.1709 131.267 24.9471 130.046 24.4995C128.824 24.0409 127.846 23.4132 127.11 22.6162C126.389 21.8192 126.028 20.9021 126.028 19.8649C126.028 18.9369 126.257 18.1126 126.713 17.392C127.169 16.6714 127.853 16.06 128.766 15.5578C129.693 15.0556 130.855 14.6789 132.253 14.4278C133.651 14.1658 135.284 14.0348 137.153 14.0348H140.597Z" fill="black"/>
<path d="M158.454 7.12385V24.8434H151.545V7.12385H158.454ZM151.126 2.53838C151.126 1.79597 151.479 1.19004 152.185 0.720573C152.891 0.240191 153.818 0 154.966 0C156.114 0 157.041 0.240191 157.747 0.720573C158.468 1.19004 158.829 1.79597 158.829 2.53838C158.829 3.26987 158.468 3.87581 157.747 4.35619C157.041 4.82566 156.114 5.06039 154.966 5.06039C153.818 5.06039 152.891 4.82566 152.185 4.35619C151.479 3.87581 151.126 3.26987 151.126 2.53838Z" fill="black"/>
<path d="M163.862 7.12385H170.793V25.6622C170.793 27.027 170.447 28.1788 169.755 29.1177C169.064 30.0676 168.063 30.7827 166.753 31.2631C165.458 31.7543 163.906 32 162.096 32C161.507 32 160.948 31.9782 160.418 31.9345C159.889 31.9017 159.322 31.8308 158.719 31.7216V27.8239C159.087 27.8676 159.44 27.9004 159.778 27.9222C160.102 27.955 160.448 27.9713 160.816 27.9713C161.478 27.9713 162.03 27.8895 162.471 27.7257C162.927 27.5619 163.273 27.3054 163.508 26.956C163.744 26.6175 163.862 26.1863 163.862 25.6622V7.12385ZM163.332 2.53838C163.332 1.79597 163.685 1.19004 164.391 0.720573C165.098 0.240191 166.032 0 167.195 0C168.342 0 169.27 0.240191 169.976 0.720573C170.682 1.19004 171.035 1.79597 171.035 2.53838C171.035 3.26987 170.682 3.87581 169.976 4.35619C169.27 4.82566 168.342 5.06039 167.195 5.06039C166.032 5.06039 165.098 4.82566 164.391 4.35619C163.685 3.87581 163.332 3.26987 163.332 2.53838Z" fill="black"/>
<path d="M188.076 20.6182V13.0194C188.076 12.4845 187.965 12.0259 187.745 11.6438C187.524 11.2617 187.178 10.9614 186.707 10.7431C186.236 10.5247 185.626 10.4156 184.875 10.4156C184.242 10.4156 183.691 10.4974 183.22 10.6612C182.764 10.825 182.41 11.0597 182.16 11.3654C181.925 11.6711 181.807 12.0478 181.807 12.4954L172 13.0522C172 12.2552 175.163 10.956 175.649 10.2682C176.134 9.58036 176.826 8.97442 177.724 8.45037C178.636 7.92632 179.725 7.52236 180.99 7.23849C182.256 6.94371 183.676 6.79633 185.25 6.79633C187.119 6.79633 188.782 7.03106 190.239 7.50052C191.71 7.95907 192.873 8.65235 193.726 9.58036C194.58 10.4974 195.007 11.6547 195.007 13.0522V20.4708C195.007 21.5408 195.088 22.3814 195.25 22.9928C195.426 23.5933 195.676 27.2781 196 27.7257L198.5 25.6622L189.047 24.8434C188.723 24.3303 188.48 23.697 188.319 22.9437C188.157 22.1795 188.076 21.4043 188.076 20.6182ZM188.937 14.0348L188.981 16.8516H185.559C184.794 16.8516 184.132 16.9226 183.573 17.0645C183.028 17.2064 182.587 17.4029 182.248 17.654C181.91 17.8942 181.66 18.1781 181.498 18.5056C181.351 18.8222 181.277 19.1716 181.277 19.5537C181.277 19.914 181.395 20.2416 181.63 20.5363C181.866 20.8202 182.19 21.044 182.602 21.2078C183.014 21.3715 183.492 21.4534 184.036 21.4534C184.934 21.4534 185.699 21.3224 186.332 21.0604C186.979 20.7984 187.48 20.4817 187.833 20.1105C188.186 19.7284 188.363 19.3736 188.363 19.0461L190.018 21.175C189.753 21.6117 189.43 22.0648 189.047 22.5343C188.664 22.9928 188.179 23.4241 187.59 23.828C187.002 24.2211 186.288 24.5432 185.449 24.7943C184.625 25.0454 183.632 25.1709 182.469 25.1709C180.968 25.1709 179.607 24.9471 178.386 24.4995C177.164 24.0409 176.186 23.4132 175.45 22.6162C174.729 21.8192 174.368 20.9021 174.368 19.8649C174.368 18.9369 174.597 18.1126 175.053 17.392C175.509 16.6714 176.193 16.06 177.105 15.5578C178.033 15.0556 179.195 14.6789 180.593 14.4278C181.991 14.1658 183.624 14.0348 185.493 14.0348H188.937Z" fill="black"/>
</g>
<defs>
<clipPath id="clip0_307_25">
<rect width="199" height="32" fill="white"/>
</clipPath>
</defs>
</svg>
